Patient4_TMGait_0pt7_01_left_18_EMG.mot
version=1
nRows=23
nColumns=33
inDegrees=no
endheader
time	1LAddLong	2LGlutMax	3LGlutMed	4LIliopsoas	5LSemiMemb	6LBicFemLong	7LRecFem	8LVastMed	9LVastLat	10LGasMed	11LTibAnt	12lTibPost	13LPeroneusLong	14LSol	15LExtDigLong	16LFlexDigLong	17RAddLong	18RGlutMax	19RGlutMed	20RIliopsoas	21RSemiMemb	22RBicFemLong	23RRecFem	24RVastMed	25RVastLat	26RGasMed	27RTibAnt	28RTibPost	29RPeroneusLong	30RSol	31RExtDigLong	32RFlexDigLong
20.65	0.014191	0.69366	-0.062103	0.010071	-0.025024	0.023193	-0.079041	0.013428	0.26871	0.036011	0.032349	0.021057	-0.034027	-0.091705	-0.020905	-0.020294	-0.005493	0.018921	0.18692	-0.002747	0.000458	-0.096436	-0.14877	0.077057	0.084686	-0.013123	-0.40131	-0.02655	0.15121	-0.10254	0.000458	-0.003662
20.651	0.013123	0.72327	-0.024414	-0.01358	-0.02243	0.00351	-0.044403	0.0177	0.26871	0.0177	0.061646	0.023041	-0.023041	-0.040588	-0.013428	-0.034485	-0.012817	-0.050659	0.034943	-0.015717	0.003662	-0.03479	-0.17319	0.092468	0.030212	-0.004578	-0.28412	-0.022888	0.20264	0.093994	-0.000458	-0.012054
20.652	0.011902	0.72723	-0.03067	-0.015717	-0.012817	-0.007629	-0.056305	0.015717	0.26016	0.013733	0.040894	0.02182	-0.026093	-0.024719	-0.021057	-0.013733	-0.010681	-0.069733	0.37247	0.007172	-0.023041	-0.006256	-0.14587	0.098877	0.025482	0.011902	-0.25772	-0.020752	0.22278	0.23651	-0.005188	-0.016479
20.653	0.012207	0.71335	-0.054016	0.002594	-0.014496	-0.015106	-0.072327	0.017548	0.25406	-0.007019	-0.020447	0.017242	-0.009918	-0.046387	-0.050201	-0.007477	-0.000458	-0.12756	0.1622	0.000305	-0.060883	-0.066528	-0.04837	0.11078	0.001526	0.016937	-0.19577	-0.018005	0.037689	0.37231	0.002594	-0.023651
20.654	0.020905	0.70877	-0.049896	0.02243	-0.01358	-0.021515	-0.069122	0.009155	0.25665	-0.02121	0.072327	0.018311	0.001068	-0.037537	0.033417	-0.018616	0.018768	-0.15839	-0.18143	-0.037231	-0.047607	-0.098267	-0.000153	-0.009003	-0.001678	-0.021973	-0.28992	-0.018005	-0.13596	0.41077	-0.001831	-0.023193
20.655	0.019531	0.7457	-0.032043	0.007935	-0.019073	-0.031738	-0.055389	0.011749	0.25299	-0.021973	0.072327	0.01709	0.025024	-0.02121	0.050659	-0.008545	0.009766	-0.097961	-0.17258	-0.12329	0.017242	-0.079803	-0.041504	0.000458	-0.002289	-0.11887	-0.23773	-0.020599	-0.074921	0.42664	-0.003204	-0.02182
20.656	0.020142	0.78095	-0.036469	0.007477	-0.015259	-0.036926	-0.0177	0.010986	0.25299	-0.01236	0.068207	0.025482	0.005951	-0.045319	0.027924	-0.006866	0.014038	-0.11688	-0.11002	-0.091095	0.03952	-0.12207	-0.08606	0.031281	-0.001526	-0.036011	0.028992	-0.018921	-0.037537	0.383	-0.005646	-0.025482
20.657	0.019226	0.81924	-0.034485	0.02533	-0.02121	-0.043488	-0.00885	0.006256	0.25513	-0.012817	-0.048981	0.020599	0.001984	-0.058899	0.15518	-0.003662	0.001068	-0.13779	0.020142	-0.072479	0.055237	-0.11231	-0.057068	0.051575	0.007935	-0.013123	0.27054	-0.011444	0.13596	0.18921	-0.006256	-0.027313
20.658	0.022278	0.85281	-0.044556	0.011597	-0.027313	-0.050354	0.025024	0.003204	0.25467	-0.023193	-0.11993	0.023499	0.019379	0.005646	0.12878	-0.001068	0.005798	-0.080261	0.27573	-0.029144	0.036316	-0.08316	-0.006256	0.015717	0.026093	-0.005798	0.30518	-0.017242	0.023804	-0.072327	-0.000458	-0.035095
20.659	0.01358	0.86945	-0.054779	-0.001678	-0.010376	-0.057373	0.010071	0.008087	0.25497	-0.02533	-0.063171	0.023804	0.015106	0.007324	0.48904	-0.003815	0.015259	0.022278	0.49042	0.05661	-0.13534	-0.00885	0.007172	0.007324	0.006409	0.012817	-0.048065	-0.035095	-0.07431	-0.23285	-0.002441	-0.033569
20.66	-0.001526	0.85403	-0.057373	0.004578	-0.013885	-0.045166	0.027313	0.008087	0.2475	-0.04837	-0.011597	0.023499	0.027618	0.032349	-0.066681	0.005341	0.023499	0.053711	0.5809	0.18799	-0.13001	-0.013123	-0.030212	0.016632	-0.003662	0.005646	-0.040741	-0.084686	0.041962	-0.177	-0.00351	-0.028229
20.661	0.011902	0.83389	-0.053253	0.012817	-0.014343	-0.044861	0.016327	0.010071	0.22964	-0.047302	-0.011139	0.026245	0.05127	0.050354	-0.15869	0.000458	0.00351	0.1149	0.70068	0.11307	-0.14389	0.001984	0.03006	-0.01358	-0.031281	0	0.10117	-0.23163	0.12878	-0.24902	-0.000153	-0.02655
20.662	0.011139	0.82657	-0.07843	-0.007324	-0.010071	-0.017395	0.028076	0.010681	0.23682	-0.050354	-0.092621	0.024109	0.044708	-0.010376	-0.27908	0.007935	0.034485	0.085907	0.41428	0.061035	-0.18219	-0.06546	0.094604	-0.094147	-0.033264	-0.032043	0.23071	-0.20371	0.10178	-0.39902	-0.002136	-0.024261
20.663	0.020447	0.82596	-0.082245	0.005951	-0.016327	-0.026093	0.026245	0.009003	0.21606	-0.087585	-0.082092	0.033264	-0.00351	-0.049133	-0.31601	0.001373	0.018768	0.103	0.21698	0.066071	-0.075531	-0.17807	0.059509	-0.18173	-0.028076	-0.067596	0.16968	0.34256	-0.027008	-0.45792	-0.003204	-0.036469
20.664	0.017242	0.7782	-0.024719	0.008698	-0.018616	-0.023956	0.019073	0.010529	0.21347	-0.06897	-0.12573	0.027008	0.010986	-0.12604	-0.049744	-0.002136	-0.020294	0.15945	0.41092	0.0177	0.1178	-0.15762	0.30273	-0.081024	-0.026703	-0.093384	0.30502	0.21347	-0.069122	-0.33829	-0.001831	-0.024414
20.665	0.026398	0.75623	-0.05249	0.001678	-0.002441	-0.019073	0.018616	0.011597	0.21561	-0.032196	-0.10757	0.024872	0.04776	-0.019226	0.01236	0.01358	-0.032959	0.11795	0.60928	-0.091705	0.019836	-0.011139	0.30212	-0.020447	-0.03479	-0.11139	0.43366	0.020599	-0.18158	0.57693	-0.003357	-0.022583
20.666	0.032959	0.74112	-0.049591	-0.018768	0.003052	-0.024567	0.026245	0.005035	0.21286	-0.049744	-0.027008	0.024872	0.080566	-0.018005	0.2388	0.009003	0	0.28473	0.29022	-0.13168	0.050507	0.089569	0.33905	-0.1709	-0.14984	-0.093842	0.14084	0.005646	-0.019531	0.6958	-0.010681	-0.015411
20.667	0.023346	0.70877	-0.08255	-0.051575	0.00061	0.001221	0.024567	0.007172	0.19775	-0.081635	0.014191	0.028992	0.062714	-0.11887	-0.16525	0.008545	0.016022	0.3186	-0.65262	-0.016327	0.024567	0.061646	0.20584	-0.33966	-0.24139	-0.072784	0.29236	-0.015564	0.18677	0.6871	-0.002289	-0.004578
20.668	0.024719	0.68848	-0.080109	-0.021973	-0.018616	-0.018005	0.028839	0.009613	0.21973	-0.13199	0.0383	0.027313	0.084381	-0.13886	-0.079803	0.019531	-0.006866	0.38864	-1.4442	0.059357	-0.054169	0.14832	-0.37293	-0.37659	-0.21637	0.057983	-0.24033	-0.020752	0.2507	0.33096	-0.001831	-0.006714
20.669	0.027466	0.63202	-0.029297	0.005798	-0.0354	-0.055237	0.038147	0.005188	0.21225	-0.12497	0.19257	0.026398	0.048676	-0.07019	-0.069275	0.01358	-0.009155	0.34088	-0.050049	0.043945	0.012054	0.18524	-0.95856	-0.39063	-0.012054	0.10971	-0.70297	-0.019073	0.1564	-0.066071	-0.004883	0.000153
20.67	0.019531	0.6282	-0.058441	-0.003052	-0.016022	-0.080719	0.032349	0.005188	0.18616	-0.07019	0.1471	0.026855	-0.003662	0.072784	-0.074768	0.000763	0.018158	0.28702	0.6131	0.10468	-0.02533	0.23407	-0.50568	-0.19592	0.19989	0.074158	-0.51407	-0.023346	-0.1767	-0.40176	-0.000458	-0.014496
20.671	0.020294	0.6073	-0.03891	0.015717	-0.001068	-0.055695	0.047302	0.001831	0.17471	0.009155	0.076599	0.027771	-0.052338	0.076447	-0.061951	0.028839	0.047455	0.12375	-0.44846	0.14893	-0.082855	0.11673	0.11993	0.022736	0.16876	0.031128	-0.054626	0.006104	-0.27527	0.1384	-0.002441	-0.016937
20.672	0.022278	0.55634	-0.039063	-0.005493	-0.001526	-0.046539	0.024109	0.014038	0.17136	0.10544	0.035858	0.024109	0.002747	-0.024261	-0.029297	0.023041	0.029755	0.04837	-0.072021	0.056305	-0.19806	-0.067139	0.04425	0.087128	0.005493	0.022125	0.3067	0.073547	-0.12116	0.12253	-0.000305	-0.019684
